<?xml version="1.0" encoding="UTF-8" standalone="no"?>
<svg
   id="Layer_1"
   data-name="Layer 1"
   viewBox="0 0 550.00002 550.00001"
   version="1.1"
   sodipodi:docname="lux-logo.svg"
   width="550"
   height="550"
   inkscape:version="1.4.2 (ebf0e940d0, 2025-05-08)"
   xmlns:inkscape="http://www.inkscape.org/namespaces/inkscape"
   xmlns:sodipodi="http://sodipodi.sourceforge.net/DTD/sodipodi-0.dtd"
   xmlns="http://www.w3.org/2000/svg"
   xmlns:svg="http://www.w3.org/2000/svg">
  <sodipodi:namedview
     id="namedview46"
     pagecolor="#ffffff"
     bordercolor="#000000"
     borderopacity="0.25"
     inkscape:showpageshadow="2"
     inkscape:pageopacity="0.0"
     inkscape:pagecheckerboard="0"
     inkscape:deskcolor="#d1d1d1"
     showgrid="false"
     inkscape:zoom="1.3219951"
     inkscape:cx="274.58499"
     inkscape:cy="252.64845"
     inkscape:window-width="3580"
     inkscape:window-height="1508"
     inkscape:window-x="0"
     inkscape:window-y="0"
     inkscape:window-maximized="1"
     inkscape:current-layer="Layer_1" />
  <defs
     id="defs14">
    <style
       id="style1">
      .cls-1 {
        fill: none;
      }

      .cls-2 {
        fill: #fff7e2;
      }

      .cls-3 {
        fill: #868686;
      }

      .cls-4 {
        clip-path: url(#clippath-11);
      }

      .cls-5 {
        clip-path: url(#clippath-10);
      }

      .cls-6 {
        clip-path: url(#clippath-13);
      }

      .cls-7 {
        clip-path: url(#clippath-12);
      }

      .cls-8 {
        clip-path: url(#clippath-1);
      }

      .cls-9 {
        clip-path: url(#clippath-3);
      }

      .cls-10 {
        clip-path: url(#clippath-4);
      }

      .cls-11 {
        clip-path: url(#clippath-2);
      }

      .cls-12 {
        clip-path: url(#clippath-7);
      }

      .cls-13 {
        clip-path: url(#clippath-6);
      }

      .cls-14 {
        clip-path: url(#clippath-9);
      }

      .cls-15 {
        clip-path: url(#clippath-8);
      }

      .cls-16 {
        clip-path: url(#clippath-5);
      }

      .cls-17 {
        fill: #f8e3a7;
      }

      .cls-18 {
        fill: #b49c75;
      }

      .cls-19 {
        clip-path: url(#clippath);
      }
    </style>
    <clipPath
       id="clippath">
      <rect
         class="cls-1"
         x="68.480003"
         y="59.060001"
         width="374.91"
         height="436.79001"
         id="rect1" />
    </clipPath>
    <clipPath
       id="clippath-1">
      <rect
         class="cls-1"
         x="68.480003"
         y="59.060001"
         width="374.91"
         height="428.79999"
         id="rect2" />
    </clipPath>
    <clipPath
       id="clippath-2">
      <rect
         class="cls-1"
         x="271.56"
         y="421.39999"
         width="70.300003"
         height="74.449997"
         id="rect3" />
    </clipPath>
    <clipPath
       id="clippath-3">
      <rect
         class="cls-1"
         x="79.099998"
         y="75.160004"
         width="165.99001"
         height="310.73001"
         id="rect4" />
    </clipPath>
    <clipPath
       id="clippath-4">
      <rect
         class="cls-1"
         y="0"
         width="549.16998"
         height="459.67001"
         id="rect5"
         x="0" />
    </clipPath>
    <clipPath
       id="clippath-5">
      <rect
         class="cls-1"
         x="24.25"
         width="467.01999"
         height="459.67999"
         id="rect6"
         y="0" />
    </clipPath>
    <clipPath
       id="clippath-6">
      <rect
         class="cls-1"
         y="57.759998"
         width="51.240002"
         height="114.12"
         id="rect7"
         x="0" />
    </clipPath>
    <clipPath
       id="clippath-7">
      <rect
         class="cls-1"
         x="482.01001"
         y="249.83"
         width="67.160004"
         height="108.74"
         id="rect8" />
    </clipPath>
    <clipPath
       id="clippath-8">
      <rect
         class="cls-1"
         x="62.700001"
         y="47.790001"
         width="425.78"
         height="450.42001"
         id="rect9" />
    </clipPath>
    <clipPath
       id="clippath-9">
      <rect
         class="cls-1"
         x="62.700001"
         y="47.790001"
         width="425.78"
         height="450.42001"
         id="rect10" />
    </clipPath>
    <clipPath
       id="clippath-10">
      <rect
         class="cls-1"
         x="282.07001"
         y="416.75"
         width="39.470001"
         height="58.57"
         id="rect11" />
    </clipPath>
    <clipPath
       id="clippath-11">
      <rect
         class="cls-1"
         x="139.24001"
         y="161.47"
         width="235.25999"
         height="70.230003"
         id="rect12" />
    </clipPath>
    <clipPath
       id="clippath-12">
      <rect
         class="cls-1"
         x="139.24001"
         y="161.47"
         width="235.25999"
         height="70.080002"
         id="rect13" />
    </clipPath>
    <clipPath
       id="clippath-13">
      <rect
         class="cls-1"
         x="143.60001"
         y="165.67999"
         width="230.85001"
         height="66.019997"
         id="rect14" />
    </clipPath>
  </defs>
  <g
     class="cls-19"
     clip-path="url(#clippath)"
     id="g24"
     transform="translate(0.81878621,25.366593)">
    <g
       class="cls-8"
       clip-path="url(#clippath-1)"
       id="g15">
      <path
         class="cls-17"
         d="m 386.49,115.51 c 50.84,56.41 56.65,144.83 13.46,207.47 -8.18,12.03 -17.55,22.74 -28.55,32.48 -5.45,4.78 -11.18,9.23 -17.18,13.31 -0.47,0.26 -0.9,0.59 -1.26,0.96 -0.16,0.1 -0.33,0.21 -0.49,0.33 -4.97,3.79 -9.46,8.21 -13.3,13.15 -3.8,4.9 -6.99,10.29 -9.4,16.01 -0.12,0.27 -0.23,0.54 -0.34,0.8 0,0.02 -0.02,0.04 -0.02,0.06 -2,4.86 -3.42,9.97 -4.3,15.15 -0.74,3.62 -1.4,8.48 2.26,10.14 0,0 0,0 0.01,0 0.74,0.4 1.59,0.64 2.48,0.67 2.05,-0.03 4.07,0.96 5.3,2.6 0,0 0.01,0.01 0.02,0.02 1.11,1.49 1.57,3.42 1.2,5.25 -0.55,2.86 -3.12,5.12 -6.04,5.28 -2.85,0.27 -4.86,3.17 -4.49,5.91 0.47,3.2 2.94,4.43 5.62,4.46 2.68,0.62 4.79,3.05 5,5.8 0,0.02 0,0.04 0.02,0.06 v 0 c 0.12,1.68 -0.42,3.37 -1.45,4.67 0,0.01 -0.02,0.03 -0.03,0.04 -0.46,0.56 -1.02,1.05 -1.64,1.43 -0.3,0.11 -0.6,0.24 -0.89,0.4 -0.34,0.1 -0.67,0.21 -0.99,0.32 0,0 0,0 -0.01,0 -0.23,0.05 -0.46,0.12 -0.68,0.19 -0.11,0.02 -0.22,0.03 -0.33,0.04 -2.84,0.35 -4.87,3.1 -4.48,5.91 0.63,3.28 2.98,4.53 5.8,4.46 0.34,0.16 0.71,0.3 1.08,0.4 1.49,0.74 2.65,2.07 3.23,3.61 0.05,0.12 0.09,0.25 0.13,0.38 0.02,0.08 0.05,0.16 0.07,0.24 0.02,0.08 0.04,0.16 0.06,0.24 0.05,0.22 0.08,0.44 0.11,0.66 0,0 0,0.01 0,0.02 0,0.07 0.02,0.15 0.02,0.22 0.01,0.19 0.02,0.37 0.02,0.56 0,0.03 0,0.06 0.01,0.09 -0.04,2.7 -1.86,5.24 -4.43,6.1 -0.88,0.1 -1.73,0.3 -2.49,0.6 -1,0.07 -2.02,0.14 -2.99,0.29 0,0 -0.02,0 -0.02,0 -0.58,0.06 -1.14,0.12 -1.68,0.16 -3.96,0.33 -7.79,0.55 -11.69,0.72 -1.45,-0.04 -2.97,0.11 -4.33,0.16 -9.54,0.27 -19.1,0.11 -28.63,-0.48 0,-0.17 0,-0.33 0,-0.5 0.04,-1.07 0.08,-2.2 0.03,-3.29 0.04,-0.24 0.05,-0.5 0.06,-0.76 V 327.36 c 16.62,-5.19 31.08,-20.75 36.83,-36.71 1.46,-4.03 2.51,-8.14 3.14,-12.38 0.68,-2.98 -1.35,-6.07 -4.41,-6.47 -0.49,-0.04 -0.94,-0.04 -1.35,0 -0.43,-0.12 -0.89,-0.19 -1.39,-0.21 -3.95,0 -7.9,0 -11.85,0 -0.46,-0.05 -0.96,-0.06 -1.48,0 -4.48,0 -8.96,0 -13.45,-0.01 -2.01,0 -4.03,-0.02 -6.04,-0.03 V 59.31 c 0,0 0.03,0 0.04,0 0.83,0.11 1.67,0.21 2.5,0.33 0,0 0.02,0 0.02,0 3.49,0.49 6.96,1.09 10.41,1.78 35.86,7.3 69.02,26.62 93.18,54.07 z"
         id="path14" />
      <path
         class="cls-17"
         d="m 237.6,327.44 v 69.12 c -4.09,-0.52 -8.16,-1.18 -12.21,-1.98 -21.86,-4.42 -42.8,-13.16 -61.3,-25.64 -70.26,-46.61 -95.35,-141.56 -57.23,-216.8 22.66,-45.98 67.41,-80.62 117.81,-90.69 2.44,-0.5 4.89,-0.95 7.36,-1.35 0.93,-0.02 1.89,-0.18 2.84,-0.41 0.91,-0.11 1.83,-0.24 2.74,-0.36 v 212.21 c -1.38,0 -2.76,0 -4.14,-0.02 -8.99,0 -17.98,-0.01 -26.97,-0.02 -1.15,-0.14 -2.3,-0.07 -3.35,0.22 -0.31,-0.01 -0.64,0 -1,0.02 -3.61,0.46 -5.24,4.27 -4.25,7.52 1.03,6.29 3.04,12.36 5.89,18.05 6.93,13.83 19.31,24.77 33.82,30.12 z"
         id="path15" />
    </g>
    <g
       class="cls-11"
       clip-path="url(#clippath-2)"
       id="g16">
      <path
         class="cls-3"
         d="m 338.88,423.74 c 0.16,1.21 -0.71,2.37 -1.93,2.54 -1.12,0.15 -2.24,0.3 -3.36,0.44 0.99,0.42 1.91,1.03 2.72,1.86 4.61,4.93 2.22,10.77 -2.7,13.6 0.06,0.98 0.02,1.97 -0.1,2.95 2.57,3.04 4.21,6.78 4.15,10.51 0.04,3.89 -1.61,7.68 -4.26,10.49 8.19,7.93 5.07,24.04 -8.58,26.07 -4.56,-0.11 -9.05,1.23 -13.41,-0.54 -4.39,0.08 -8.79,0.48 -13.14,-0.3 -8.28,4.25 -19.21,-0.3 -21.67,-9.55 -0.95,-3.67 -0.52,-7.27 0.86,-10.49 -0.65,-0.86 -1.26,-1.76 -1.82,-2.7 -3.84,-5.97 -2.66,-13.5 -1.11,-19.99 -0.86,-2.01 -1.14,-4.34 -1.1,-6.55 0.08,1 0.07,1.99 0.32,2.96 -1.08,-6.21 1.04,-11.08 4.6,-14.2 -1.2,-0.7 -1.52,-2.35 -0.74,-3.43 -1.15,-1.35 -0.3,-4 2.01,-3.73 0.69,0.05 1.37,0.09 2.06,0.14 0.49,0 0.98,0.01 1.45,0.09 v 0 c 11.39,0.67 22.89,0.62 34.25,-0.14 6.33,-0.43 12.65,-1.08 18.94,-1.94 1.21,-0.16 2.37,0.71 2.54,1.93 z"
         id="path16" />
    </g>
    <g
       class="cls-9"
       clip-path="url(#clippath-3)"
       id="g23">
      <path
         class="cls-18"
         d="m 184.3,385.27 c -5.29,-3.13 -10.77,-5.93 -16.25,-8.71 -2.69,-1.36 -5.44,-2.62 -8.17,-3.9 -0.69,-0.32 -1.38,-0.65 -2.07,-0.97 -2.33,-1.59 -4.63,-3.2 -6.91,-4.86 -1.61,-1.36 -3.2,-2.75 -4.78,-4.16 -1.78,-1.59 -3.53,-3.22 -5.19,-4.94 -0.87,-0.9 -1.77,-1.79 -2.61,-2.73 -0.9,-1 -1.79,-2 -2.69,-3 -1.27,-1.48 -2.54,-2.96 -3.82,-4.44 -1.62,-1.88 -3.22,-3.8 -4.99,-5.54 -0.42,-0.41 -0.85,-0.83 -1.29,-1.22 5.31,-12.58 17.14,-22.14 31.45,-23.67 20.89,-2.23 40.23,13.37 42.46,34.25 1.44,13.45 -4.52,26.26 -14.52,34.27 -0.21,-0.12 -0.41,-0.25 -0.62,-0.37 z"
         id="path17" />
      <path
         class="cls-18"
         d="m 154.98,261.51 c 0,-5.2 4.35,-9.55 9.55,-9.55 5.2,0 9.55,4.35 9.55,9.55 0,5.2 -4.35,9.55 -9.55,9.55 -5.2,0 -9.55,-4.35 -9.55,-9.55 z"
         id="path18" />
      <path
         class="cls-18"
         d="m 84.49,267.4 c -0.52,-2.49 -0.93,-4.99 -1.32,-7.5 -0.13,-0.97 -0.27,-1.94 -0.39,-2.91 -0.08,-0.71 -0.17,-1.41 -0.25,-2.12 -0.05,-0.48 -0.07,-0.98 -0.16,-1.45 -0.11,-0.52 -0.25,-0.96 -0.47,-1.44 -0.38,-0.83 -1.24,-1.35 -2.13,-1.45 -0.03,-0.25 -0.05,-0.49 -0.08,-0.73 -0.13,-1.22 -0.18,-2.45 -0.26,-3.68 0,-0.12 -0.02,-0.25 -0.02,-0.38 v -0.1 c 0,-5.66 0,-11.33 -0.02,-16.99 0,-2.14 -0.02,-4.28 -0.03,-6.41 0.06,-1.01 0.14,-2.02 0.23,-3.03 0.14,-1.67 0.17,-3.35 0.33,-5.01 0,-0.06 0.02,-0.12 0.03,-0.18 2.28,-0.64 4.67,-0.98 7.13,-0.98 14.84,0 27.25,12.41 27.25,27.25 0,14.84 -12.41,27.25 -27.25,27.25 -0.87,0 -1.73,-0.04 -2.58,-0.13 z"
         id="path19" />
      <path
         class="cls-18"
         d="m 114.14,269.14 c 0,-1.49 1.25,-2.74 2.74,-2.74 1.49,0 2.74,1.25 2.74,2.74 0,1.49 -1.25,2.74 -2.74,2.74 -1.49,0 -2.74,-1.25 -2.74,-2.74 z"
         id="path20" />
      <path
         class="cls-18"
         d="m 136.45,96.93 c 0.44,-0.43 0.88,-0.85 1.33,-1.28 2.07,-1.88 4.11,-3.78 6.23,-5.59 2.24,-1.92 4.43,-3.9 6.64,-5.86 0.03,0 0.05,0 0.08,0 0.74,0.04 1.38,-0.14 2.02,-0.52 0.32,-0.2 0.64,-0.39 0.96,-0.59 0.58,-0.36 1.15,-0.74 1.72,-1.11 2.5,-1.64 4.93,-3.36 7.33,-5.13 0.65,-0.48 1.3,-0.96 1.95,-1.44 6.91,3.23 11.8,10.29 11.8,18.3 0,10.98 -9.18,20.16 -20.16,20.16 -9.89,0 -18.32,-7.44 -19.9,-16.95 z"
         id="path21" />
      <path
         class="cls-18"
         d="m 244.34,106.03 c 0,0 0,0.07 0,0.1 0,-0.04 0,-0.07 0,-0.1 z"
         id="path22" />
      <path
         class="cls-18"
         d="m 210.15,128.42 c 0,-13.62 11.38,-25 25,-25 3.19,0 6.26,0.62 9.09,1.76 0.04,0.36 0.07,0.73 0.12,1.09 0.16,2.22 0.32,4.45 0.37,6.68 0.05,2.29 0.09,4.57 0.1,6.86 0.01,2.64 0,5.29 -0.01,7.94 -0.44,0.47 -0.72,1.1 -0.73,1.77 -0.01,0.78 0.1,1.54 0.22,2.31 0.03,0.19 0.09,0.38 0.16,0.55 0.05,0.51 0.09,1.02 0.12,1.52 -0.04,0.45 -0.08,0.89 -0.12,1.34 -0.29,3.12 -0.61,6.23 -0.94,9.34 -0.26,2.52 -0.49,5.05 -0.6,7.59 -2.46,0.83 -5.08,1.28 -7.78,1.28 -13.62,0 -25,-11.39 -25,-25.01 z"
         id="path23" />
    </g>
  </g>
  <g
     class="cls-10"
     clip-path="url(#clippath-4)"
     id="g36"
     transform="translate(0.81878621,25.366593)">
    <g
       class="cls-16"
       clip-path="url(#clippath-5)"
       id="g29">
      <path
         class="cls-17"
         d="m 99.64,72.65 c -2.82,-2.82 -2.98,-7.8 0,-10.61 12.23,-11.51 25.61,-21.69 39.98,-30.39 25.46,-15.35 53.93,-25.69 83.3,-30.27 9.73,-1.13 11.79,13.25 2.04,14.86 -12.58,1.96 -24.95,5.12 -37,9.24 -17.79,6.2 -34.72,14.71 -50.34,25.23 -7.67,5.23 -15,10.91 -21.98,17.01 -4.26,4.08 -10.24,10.56 -16,4.93 z"
         id="path24" />
      <path
         class="cls-17"
         d="m 477.95,227.01 c -3.04,-2.91 -2.04,-7.66 -2.51,-11.34 -0.67,-9.64 -1.98,-19.24 -3.87,-28.72 C 464.08,150.08 446.7,115.36 421.84,87.14 391.85,53.04 351.05,28.72 306.71,18.82 297.37,16.17 301.06,1.88 310.7,4.36 c 91.19,19.83 164.86,99.14 177.67,191.61 1.29,8.52 2.05,17.12 2.38,25.73 0.27,6.45 -8.42,10.03 -12.8,5.3 z"
         id="path25" />
      <path
         class="cls-17"
         d="m 411.71,395.13 c -2.82,-2.82 -2.98,-7.81 0,-10.61 3.55,-3.46 6.91,-7.12 10.21,-10.82 8.26,-9.47 15.79,-19.58 22.33,-30.31 5.18,-8.35 17.74,-1.04 12.95,7.57 -8.62,14.14 -18.76,27.34 -30.16,39.34 -3.68,4.52 -9.84,10.22 -15.33,4.83 z"
         id="path26" />
      <path
         class="cls-17"
         d="M 208.97,456.94 C 104.38,435.49 24.5,335.23 27.14,228.46 c 0.27,-9.77 14.75,-9.91 15,0 -0.23,25.01 3.78,49.49 11.88,73.06 15.2,43.99 44.99,82.63 83.54,108.69 22.79,15.4 48.5,26.45 75.39,32.27 9.34,2.61 5.64,16.95 -3.99,14.46 z"
         id="path27" />
      <path
         class="cls-17"
         d="m 57.44,117.78 c 0,-4.09 3.41,-7.5 7.5,-7.5 4.09,0 7.5,3.41 7.5,7.5 0,4.09 -3.41,7.5 -7.5,7.5 -4.09,0 -7.5,-3.41 -7.5,-7.5 z"
         id="path28" />
      <path
         class="cls-17"
         d="m 469.16,282.83 c 0,-4.09 3.41,-7.5 7.5,-7.5 4.09,0 7.5,3.41 7.5,7.5 0,4.09 -3.41,7.5 -7.5,7.5 -4.09,0 -7.5,-3.41 -7.5,-7.5 z"
         id="path29" />
    </g>
    <g
       class="cls-13"
       clip-path="url(#clippath-6)"
       id="g32">
      <path
         class="cls-17"
         d="m 0.25,160.63 c 0,-6 5,-11 11,-11 6,0 11,5 11,11 0,6 -5,11 -11,11 -6,0 -11,-5 -11,-11 z"
         id="path30" />
      <path
         class="cls-17"
         d="m 40.49,63.26 c 0,-2.86 2.39,-5.25 5.25,-5.25 2.86,0 5.25,2.39 5.25,5.25 0,2.86 -2.39,5.25 -5.25,5.25 -2.86,0 -5.25,-2.39 -5.25,-5.25 z"
         id="path31" />
      <path
         class="cls-17"
         d="m 5.47,102.02 c 0,-4.91 4.09,-9 9,-9 4.91,0 9,4.09 9,9 0,4.91 -4.09,9 -9,9 -4.91,0 -9,-4.09 -9,-9 z"
         id="path32" />
    </g>
    <g
       class="cls-12"
       clip-path="url(#clippath-7)"
       id="g35">
      <path
         class="cls-17"
         d="m 547.98,263.59 c -0.93,5.92 -6.66,10.09 -12.58,9.15 -5.92,-0.93 -10.09,-6.66 -9.15,-12.58 0.93,-5.92 6.66,-10.09 12.58,-9.15 5.92,0.93 10.09,6.66 9.15,12.58 z"
         id="path33" />
      <path
         class="cls-17"
         d="m 493.07,353.5 c -0.45,2.82 -3.18,4.81 -6,4.37 -2.82,-0.45 -4.81,-3.18 -4.37,-6 0.45,-2.82 3.18,-4.81 6,-4.37 2.82,0.45 4.81,3.18 4.37,6 z"
         id="path34" />
      <path
         class="cls-17"
         d="m 533.7,320.67 c -0.76,4.85 -5.45,8.25 -10.29,7.49 -4.85,-0.76 -8.25,-5.45 -7.49,-10.29 0.76,-4.85 5.45,-8.25 10.29,-7.49 4.85,0.76 8.25,5.45 7.49,10.29 z"
         id="path35" />
    </g>
  </g>
  <g
     class="cls-15"
     clip-path="url(#clippath-8)"
     id="g46"
     transform="translate(0.81878621,25.366593)">
    <g
       class="cls-14"
       clip-path="url(#clippath-9)"
       id="g37">
      <path
         d="m 315.9,271.81 c 3.07,0.41 5.09,3.49 4.41,6.47 -0.64,4.23 -1.69,8.35 -3.14,12.38 -5.75,15.96 -20.21,31.52 -36.83,36.71 v 154.94 c 0,0.27 -0.03,0.52 -0.06,0.76 0.05,1.09 0,2.21 -0.03,3.29 0,0.17 0,0.33 0,0.5 9.53,0.59 19.09,0.76 28.63,0.48 1.36,-0.05 2.88,-0.2 4.33,-0.16 3.9,-0.17 7.73,-0.39 11.69,-0.72 0.54,-0.04 1.11,-0.1 1.68,-0.16 0,0 0.02,0 0.02,0 0.97,-0.14 1.99,-0.22 2.99,-0.29 0.76,-0.3 1.61,-0.5 2.49,-0.6 2.57,-0.86 4.39,-3.41 4.43,-6.1 0,-0.03 0,-0.06 -0.01,-0.09 0,-0.19 0,-0.37 -0.02,-0.56 0,-0.07 -0.02,-0.15 -0.02,-0.22 0,0 0,-0.02 0,-0.02 -0.03,-0.22 -0.06,-0.44 -0.11,-0.66 -0.02,-0.08 -0.04,-0.16 -0.06,-0.24 -0.02,-0.08 -0.04,-0.16 -0.07,-0.24 -0.04,-0.12 -0.08,-0.25 -0.13,-0.38 -0.58,-1.54 -1.74,-2.87 -3.23,-3.61 -0.37,-0.1 -0.73,-0.23 -1.08,-0.4 -0.3,0 -0.59,0 -0.88,-0.02 -0.25,-0.05 -0.5,-0.08 -0.75,-0.1 -2.07,-0.39 -3.67,-1.71 -4.18,-4.34 -0.38,-2.81 1.65,-5.56 4.48,-5.91 0.11,-0.01 0.22,-0.02 0.33,-0.04 0.22,-0.07 0.45,-0.14 0.68,-0.19 0,0 0,0 0.01,0 0.32,-0.12 0.65,-0.22 0.99,-0.32 0.29,-0.16 0.59,-0.29 0.89,-0.4 0.62,-0.38 1.17,-0.87 1.64,-1.43 0.01,-0.01 0.02,-0.03 0.03,-0.04 1.04,-1.3 1.57,-2.99 1.45,-4.66 v 0 c 0,0 -0.01,-0.05 -0.02,-0.07 -0.21,-2.75 -2.32,-5.18 -5,-5.8 -2.68,-0.02 -5.15,-1.26 -5.62,-4.46 -0.38,-2.75 1.64,-5.64 4.49,-5.91 2.91,-0.16 5.49,-2.42 6.04,-5.28 0.37,-1.83 -0.09,-3.76 -1.2,-5.25 0,0 -0.01,-0.01 -0.02,-0.02 -1.23,-1.63 -3.25,-2.63 -5.3,-2.6 -0.89,-0.03 -1.74,-0.27 -2.48,-0.67 0,0 0,0 -0.01,0 -3.66,-1.67 -3,-6.52 -2.26,-10.14 0.71,-4.19 1.77,-8.34 3.22,-12.34 0.34,-0.95 0.7,-1.88 1.08,-2.81 0,-0.02 0.02,-0.04 0.02,-0.06 0.11,-0.27 0.22,-0.54 0.34,-0.8 0.07,-0.18 0.15,-0.35 0.23,-0.53 2.38,-5.52 5.49,-10.73 9.17,-15.48 3.84,-4.94 8.33,-9.36 13.3,-13.15 0.16,-0.12 0.33,-0.23 0.49,-0.33 0.36,-0.38 0.79,-0.71 1.26,-0.96 6,-4.07 11.73,-8.53 17.18,-13.31 11,-9.74 20.37,-20.45 28.55,-32.48 43.18,-62.64 37.37,-151.06 -13.46,-207.47 -24.16,-27.45 -57.32,-46.78 -93.18,-54.07 -3.45,-0.7 -6.92,-1.29 -10.41,-1.78 0,0 -0.01,0 -0.02,0 -0.83,-0.12 -1.67,-0.23 -2.5,-0.33 -0.02,0 -0.03,0 -0.04,0 v 212.23 c 2.02,0.01 4.03,0.03 6.04,0.03 4.48,0 8.97,0 13.45,0.01 0.52,-0.05 1.02,-0.05 1.48,0 3.95,0 7.9,0 11.85,0 0.5,0.02 0.96,0.09 1.39,0.21 0.22,-0.02 0.44,-0.04 0.68,-0.04 0.21,0 0.44,0 0.67,0.03 z m -24.5,226.05 c -4.07,-0.11 -8.14,-0.29 -12.21,-0.55 -2.73,-0.34 -6.01,0.24 -8.07,-1.98 -0.75,-0.74 -1.17,-1.65 -1.32,-2.59 v -11.36 c 0.01,-0.06 0.02,-0.12 0.03,-0.17 V 324.22 c 0.05,-1.77 0.75,-3.08 1.76,-3.93 0.55,-0.7 1.28,-1.26 2.13,-1.62 0,0 0,0 0,0.01 13.42,-4.09 25.01,-13.69 31.27,-26.27 1.64,-3.29 2.93,-6.74 3.85,-10.29 -2.68,0 -5.36,0 -8.04,0 h -2.21 c -2.18,0 -4.36,0 -6.54,0 -0.01,0 -0.02,0 -0.03,0 -4.8,0 -9.61,0 -14.41,0 -3.77,0.41 -7.7,-0.87 -7.82,-5.25 0,-0.18 0,-0.37 0.03,-0.55 0,-0.04 0,-0.08 0,-0.12 V 53.53 c 0.07,-3.76 3.23,-5.49 6.05,-5.11 1.82,-0.14 3.85,0.18 5.59,0.45 0.95,0.02 1.91,0.13 2.82,0.38 6.76,0.95 13.47,2.28 20.08,3.98 150.04,39.84 183.86,236.58 55.81,324.15 -0.3,0.28 -0.62,0.51 -0.97,0.7 -0.11,0.1 -0.22,0.2 -0.34,0.29 -3.27,2.46 -6.26,5.27 -8.98,8.32 -3.94,4.51 -7.27,9.55 -9.75,15.01 -0.25,0.55 -0.5,1.11 -0.73,1.67 -0.39,1.16 -0.92,2.34 -1.38,3.53 -0.9,2.61 -1.62,5.27 -2.2,7.97 -0.12,0.53 -0.22,1.08 -0.31,1.64 1.77,0.63 3.41,1.51 4.59,2.43 1.53,1 2.6,2.09 3.3,3.18 2.4,2.85 3.72,7.57 3.57,10.71 0,4.26 -1.77,8.39 -4.64,11.48 0.96,0.99 1.75,2.02 2.27,2.98 1.62,2.71 2.27,5.02 2.26,6.89 0.42,4.27 -0.8,8.65 -3.36,12.08 -0.31,0.47 -0.67,0.93 -1.08,1.38 1.41,1.5 2.51,3.14 3.07,4.58 0.18,0.39 0.34,0.78 0.48,1.16 0.03,0.07 0.05,0.14 0.08,0.22 0.91,2.45 1.12,4.48 0.84,6.1 -0.07,2.02 -0.43,3.96 -0.99,5.41 -1.86,5.16 -6.42,9.27 -11.73,10.61 -2.09,0.91 -4.92,0.93 -7.3,1.11 -0.11,0.01 -0.22,0.02 -0.33,0.02 -5.54,0.46 -11.09,0.8 -16.64,0.95 -0.38,0.01 -0.75,0.02 -1.12,0.03 -0.04,0 -0.08,0 -0.12,0 -0.07,0 -0.15,0 -0.22,0 -2.93,0.08 -5.87,0.12 -8.81,0.12 -2.75,0 -5.51,-0.04 -8.27,-0.11 z"
         id="path36" />
      <path
         d="m 248.1,276.03 c 0.04,0.25 0.06,0.5 0.06,0.76 -0.25,5.07 -4.71,5.54 -8.8,5.28 -2.56,0 -5.12,-0.03 -7.68,-0.04 -7.5,0 -15,-0.01 -22.5,-0.02 0.38,1.46 0.81,2.91 1.3,4.35 4.37,12.49 13.73,23.08 25.57,28.98 2.59,1.27 5.27,2.37 8.03,3.19 1.97,0.61 3.11,1.91 3.56,3.4 0,0 0,0.01 0,0.02 0.4,0.88 0.57,1.88 0.46,2.9 v 77.55 c -0.11,3.43 -2.65,5.16 -5.21,5.18 -0.41,0.04 -0.84,0.04 -1.3,-0.02 C 163,401.09 94.42,337.78 81.43,260.04 62.96,167.11 127.72,70.1 220.65,51.58 c 3.48,-0.75 6.98,-1.42 10.5,-1.98 1.36,-0.32 2.84,-0.48 4.25,-0.61 h 0.02 c 0.08,-0.01 0.16,-0.02 0.24,-0.03 1.26,-0.21 2.58,-0.42 3.85,-0.48 0,0 0.01,0 0.02,0 0.96,-0.15 1.97,-0.21 2.94,-0.14 2.69,-0.19 5.52,1.53 5.64,5.17 v 222.52 z m -10.5,120.53 v -69.12 c -14.5,-5.34 -26.88,-16.29 -33.82,-30.12 -2.86,-5.7 -4.86,-11.76 -5.89,-18.05 -0.99,-3.25 0.64,-7.05 4.25,-7.52 0.35,-0.03 0.68,-0.03 1,-0.02 1.04,-0.29 2.2,-0.36 3.35,-0.22 8.99,0 17.98,0.02 26.97,0.02 1.38,0.01 2.77,0.02 4.14,0.02 V 59.34 c -0.91,0.12 -1.82,0.25 -2.74,0.36 -0.94,0.23 -1.91,0.38 -2.84,0.41 -2.46,0.4 -4.92,0.86 -7.36,1.35 -50.4,10.07 -95.15,44.71 -117.81,90.69 -38.12,75.23 -13.04,170.18 57.23,216.8 18.5,12.47 39.44,21.22 61.3,25.64 4.05,0.8 8.12,1.46 12.21,1.98 z"
         id="path37" />
    </g>
    <g
       class="cls-5"
       clip-path="url(#clippath-10)"
       id="g40">
      <path
         d="m 309.21,418.79 c 4.8,0.09 11.55,-1.79 12.08,5.08 -0.18,5.24 -5.21,5.48 -9.28,5.37 -6.38,0.15 -12.77,0.14 -19.15,-0.09 -2.47,-0.16 -5.33,0.29 -7.21,-1.67 -3.29,-3.05 -0.82,-9.17 3.71,-8.96 6.61,0.27 13.23,0.38 19.85,0.28 z"
         id="path38" />
      <path
         d="m 308.43,441.35 c 4.97,0.16 12.24,-2.26 12.84,4.98 -0.12,5.57 -5.82,5.42 -9.97,5.44 -4.25,0.14 -8.51,0.21 -12.77,0.19 -3.05,-0.02 -6.11,-0.05 -9.16,-0.16 -6.91,-0.26 -6.91,-10.29 0,-10.5 6.35,0.14 12.7,0.2 19.05,0.05 z"
         id="path39" />
      <path
         d="m 321.11,469.37 c 0.05,2.85 -2.43,5.25 -5.25,5.25 -6.89,0.32 -13.79,0.44 -20.68,0.35 -1.99,-0.03 -3.98,-0.13 -5.96,-0.13 -6.88,-0.16 -6.89,-10.33 0,-10.5 3.09,0 6.18,0.15 9.28,0.16 5.79,0.03 11.59,-0.11 17.37,-0.38 2.86,-0.13 5.25,2.49 5.25,5.25 z"
         id="path40" />
    </g>
    <g
       class="cls-4"
       clip-path="url(#clippath-11)"
       id="g45">
      <g
         class="cls-7"
         clip-path="url(#clippath-12)"
         id="g42">
        <path
           class="cls-2"
           d="m 311.25,210.81 c -1.55,-3.75 -2.41,-7.84 -2.42,-12.1 -0.05,-17.81 14.78,-32.72 32.59,-32.77 17.81,-0.05 32.72,14.78 32.77,32.59 0.05,17.81 -14.78,32.72 -32.59,32.77 -1.24,0 -2.47,-0.06 -3.68,-0.2 0.99,-0.59 1.94,-1.3 2.82,-2.11 3.55,-3.26 5.68,-7.91 5.82,-12.72 0.28,-9.56 -7.64,-18.56 -17.45,-18.53 -4.72,0.01 -9.21,1.51 -12.72,4.73 -2.45,2.25 -4.23,5.17 -5.14,8.35 z"
           id="path41" />
        <path
           class="cls-2"
           d="m 169.55,230.64 c -3.98,-0.84 -7.84,-2.43 -11.37,-4.82 -14.74,-10 -18.7,-30.65 -8.7,-45.39 10,-14.74 30.65,-18.7 45.39,-8.7 14.74,10 18.7,30.65 8.7,45.39 -0.7,1.03 -1.45,2.01 -2.24,2.93 0.07,-1.15 0.02,-2.33 -0.16,-3.52 -0.69,-4.77 -3.33,-9.15 -7.23,-11.97 -7.74,-5.62 -19.64,-4.15 -25.15,3.97 -2.65,3.91 -3.95,8.45 -3.26,13.17 0.48,3.3 1.89,6.41 4,8.95 z"
           id="path42" />
      </g>
      <g
         class="cls-6"
         clip-path="url(#clippath-13)"
         id="g44">
        <path
           d="m 143.85,198.77 c 0,-17.81 14.87,-32.68 32.68,-32.68 1.24,0 2.47,0.07 3.68,0.21 -1,0.59 -1.94,1.29 -2.83,2.1 -3.55,3.25 -5.7,7.89 -5.85,12.7 -0.3,9.56 7.59,18.58 17.4,18.58 4.72,0 9.21,-1.48 12.73,-4.7 2.46,-2.25 4.24,-5.16 5.16,-8.33 1.54,3.76 2.39,7.85 2.39,12.11 0,17.81 -14.87,32.68 -32.68,32.68 -17.81,0 -32.68,-14.87 -32.68,-32.68 z"
           id="path43" />
        <path
           d="m 308.83,198.61 c 0,-17.81 14.87,-32.68 32.68,-32.68 1.24,0 2.47,0.07 3.68,0.21 -1,0.59 -1.94,1.29 -2.83,2.1 -3.55,3.25 -5.7,7.89 -5.85,12.7 -0.3,9.56 7.59,18.58 17.4,18.58 4.72,0 9.21,-1.48 12.73,-4.7 2.46,-2.25 4.24,-5.16 5.16,-8.33 1.54,3.76 2.39,7.85 2.39,12.11 0,17.81 -14.87,32.68 -32.68,32.68 -17.81,0 -32.68,-14.87 -32.68,-32.68 z"
           id="path44" />
      </g>
    </g>
  </g>
</svg>
